<mxfile host="Electron" modified="2023-08-16T12:01:50.588Z" agent="Mozilla/5.0 (Macintosh; Intel Mac OS X 10_15_7) AppleWebKit/537.36 (KHTML, like Gecko) draw.io/21.6.5 Chrome/114.0.5735.243 Electron/25.3.1 Safari/537.36" etag="YiNiJ5EUomT6XKCQoFfZ" version="21.6.5" type="device">
  <diagram name="第 1 页" id="uTagyIk3ba5xhM97lpuT">
    <mxGraphModel dx="714" dy="792" grid="1" gridSize="10" guides="1" tooltips="1" connect="1" arrows="1" fold="1" page="1" pageScale="1" pageWidth="827" pageHeight="1169" math="0" shadow="0">
      <root>
        <mxCell id="0" />
        <mxCell id="1" parent="0" />
        <mxCell id="3ul-_6yD8wy-h_L_aHeE-32" value="" style="rounded=1;whiteSpace=wrap;html=1;" vertex="1" parent="1">
          <mxGeometry x="380" y="180" width="400" height="360" as="geometry" />
        </mxCell>
        <mxCell id="3ul-_6yD8wy-h_L_aHeE-6" value="" style="rounded=1;whiteSpace=wrap;html=1;" vertex="1" parent="1">
          <mxGeometry x="180" y="260" width="140" height="180" as="geometry" />
        </mxCell>
        <mxCell id="3ul-_6yD8wy-h_L_aHeE-48" style="edgeStyle=orthogonalEdgeStyle;rounded=0;orthogonalLoop=1;jettySize=auto;html=1;entryX=0;entryY=0.5;entryDx=0;entryDy=0;" edge="1" parent="1" source="3ul-_6yD8wy-h_L_aHeE-2" target="3ul-_6yD8wy-h_L_aHeE-8">
          <mxGeometry relative="1" as="geometry" />
        </mxCell>
        <mxCell id="3ul-_6yD8wy-h_L_aHeE-2" value="Web" style="rounded=1;whiteSpace=wrap;html=1;" vertex="1" parent="1">
          <mxGeometry x="220" y="290" width="80" height="40" as="geometry" />
        </mxCell>
        <mxCell id="3ul-_6yD8wy-h_L_aHeE-1" value="" style="points=[[0.35,0,0],[0.98,0.51,0],[1,0.71,0],[0.67,1,0],[0,0.795,0],[0,0.65,0]];verticalLabelPosition=bottom;sketch=0;html=1;verticalAlign=top;aspect=fixed;align=center;pointerEvents=1;shape=mxgraph.cisco19.user;fillColor=#005073;strokeColor=none;" vertex="1" parent="1">
          <mxGeometry x="200" y="270" width="40" height="40" as="geometry" />
        </mxCell>
        <mxCell id="3ul-_6yD8wy-h_L_aHeE-50" style="edgeStyle=orthogonalEdgeStyle;rounded=0;orthogonalLoop=1;jettySize=auto;html=1;entryX=0;entryY=0.5;entryDx=0;entryDy=0;" edge="1" parent="1" source="3ul-_6yD8wy-h_L_aHeE-3" target="3ul-_6yD8wy-h_L_aHeE-8">
          <mxGeometry relative="1" as="geometry" />
        </mxCell>
        <mxCell id="3ul-_6yD8wy-h_L_aHeE-3" value="Mobile" style="rounded=1;whiteSpace=wrap;html=1;" vertex="1" parent="1">
          <mxGeometry x="220" y="370" width="80" height="40" as="geometry" />
        </mxCell>
        <mxCell id="3ul-_6yD8wy-h_L_aHeE-4" value="" style="points=[[0.35,0,0],[0.98,0.51,0],[1,0.71,0],[0.67,1,0],[0,0.795,0],[0,0.65,0]];verticalLabelPosition=bottom;sketch=0;html=1;verticalAlign=top;aspect=fixed;align=center;pointerEvents=1;shape=mxgraph.cisco19.user;fillColor=#005073;strokeColor=none;" vertex="1" parent="1">
          <mxGeometry x="200" y="350" width="40" height="40" as="geometry" />
        </mxCell>
        <mxCell id="3ul-_6yD8wy-h_L_aHeE-7" value="Client Apps" style="text;html=1;align=center;verticalAlign=middle;resizable=0;points=[];autosize=1;strokeColor=none;fillColor=none;" vertex="1" parent="1">
          <mxGeometry x="210" y="230" width="80" height="30" as="geometry" />
        </mxCell>
        <mxCell id="3ul-_6yD8wy-h_L_aHeE-37" style="edgeStyle=orthogonalEdgeStyle;rounded=0;orthogonalLoop=1;jettySize=auto;html=1;entryX=0;entryY=0.5;entryDx=0;entryDy=0;" edge="1" parent="1" source="3ul-_6yD8wy-h_L_aHeE-8" target="3ul-_6yD8wy-h_L_aHeE-9">
          <mxGeometry relative="1" as="geometry" />
        </mxCell>
        <mxCell id="3ul-_6yD8wy-h_L_aHeE-38" style="edgeStyle=orthogonalEdgeStyle;rounded=0;orthogonalLoop=1;jettySize=auto;html=1;entryX=0;entryY=0.5;entryDx=0;entryDy=0;" edge="1" parent="1" source="3ul-_6yD8wy-h_L_aHeE-8" target="3ul-_6yD8wy-h_L_aHeE-10">
          <mxGeometry relative="1" as="geometry" />
        </mxCell>
        <mxCell id="3ul-_6yD8wy-h_L_aHeE-39" style="edgeStyle=orthogonalEdgeStyle;rounded=0;orthogonalLoop=1;jettySize=auto;html=1;entryX=0;entryY=0.5;entryDx=0;entryDy=0;" edge="1" parent="1" source="3ul-_6yD8wy-h_L_aHeE-8" target="3ul-_6yD8wy-h_L_aHeE-11">
          <mxGeometry relative="1" as="geometry" />
        </mxCell>
        <mxCell id="3ul-_6yD8wy-h_L_aHeE-40" style="edgeStyle=orthogonalEdgeStyle;rounded=0;orthogonalLoop=1;jettySize=auto;html=1;entryX=0;entryY=0.5;entryDx=0;entryDy=0;" edge="1" parent="1" source="3ul-_6yD8wy-h_L_aHeE-8" target="3ul-_6yD8wy-h_L_aHeE-12">
          <mxGeometry relative="1" as="geometry" />
        </mxCell>
        <mxCell id="3ul-_6yD8wy-h_L_aHeE-8" value="API Gateway" style="rounded=1;whiteSpace=wrap;html=1;" vertex="1" parent="1">
          <mxGeometry x="400" y="330" width="80" height="40" as="geometry" />
        </mxCell>
        <mxCell id="3ul-_6yD8wy-h_L_aHeE-41" style="edgeStyle=orthogonalEdgeStyle;rounded=0;orthogonalLoop=1;jettySize=auto;html=1;" edge="1" parent="1" source="3ul-_6yD8wy-h_L_aHeE-9" target="3ul-_6yD8wy-h_L_aHeE-31">
          <mxGeometry relative="1" as="geometry" />
        </mxCell>
        <mxCell id="3ul-_6yD8wy-h_L_aHeE-9" value="Catalog" style="rounded=1;whiteSpace=wrap;html=1;" vertex="1" parent="1">
          <mxGeometry x="520" y="210" width="80" height="40" as="geometry" />
        </mxCell>
        <mxCell id="3ul-_6yD8wy-h_L_aHeE-42" style="edgeStyle=orthogonalEdgeStyle;rounded=0;orthogonalLoop=1;jettySize=auto;html=1;" edge="1" parent="1" source="3ul-_6yD8wy-h_L_aHeE-10" target="3ul-_6yD8wy-h_L_aHeE-30">
          <mxGeometry relative="1" as="geometry">
            <Array as="points">
              <mxPoint x="660" y="310" />
              <mxPoint x="660" y="350" />
            </Array>
          </mxGeometry>
        </mxCell>
        <mxCell id="3ul-_6yD8wy-h_L_aHeE-10" value="Shopping Cart" style="rounded=1;whiteSpace=wrap;html=1;" vertex="1" parent="1">
          <mxGeometry x="520" y="290" width="80" height="40" as="geometry" />
        </mxCell>
        <mxCell id="3ul-_6yD8wy-h_L_aHeE-43" style="edgeStyle=orthogonalEdgeStyle;rounded=0;orthogonalLoop=1;jettySize=auto;html=1;" edge="1" parent="1" source="3ul-_6yD8wy-h_L_aHeE-11" target="3ul-_6yD8wy-h_L_aHeE-30">
          <mxGeometry relative="1" as="geometry">
            <Array as="points">
              <mxPoint x="660" y="390" />
              <mxPoint x="660" y="350" />
            </Array>
          </mxGeometry>
        </mxCell>
        <mxCell id="3ul-_6yD8wy-h_L_aHeE-11" value="Discount" style="rounded=1;whiteSpace=wrap;html=1;" vertex="1" parent="1">
          <mxGeometry x="520" y="370" width="80" height="40" as="geometry" />
        </mxCell>
        <mxCell id="3ul-_6yD8wy-h_L_aHeE-44" style="edgeStyle=orthogonalEdgeStyle;rounded=0;orthogonalLoop=1;jettySize=auto;html=1;" edge="1" parent="1" source="3ul-_6yD8wy-h_L_aHeE-12" target="3ul-_6yD8wy-h_L_aHeE-30">
          <mxGeometry relative="1" as="geometry" />
        </mxCell>
        <mxCell id="3ul-_6yD8wy-h_L_aHeE-12" value="Ordering" style="rounded=1;whiteSpace=wrap;html=1;" vertex="1" parent="1">
          <mxGeometry x="520" y="450" width="80" height="40" as="geometry" />
        </mxCell>
        <mxCell id="3ul-_6yD8wy-h_L_aHeE-16" value="DB" style="shape=cylinder3;whiteSpace=wrap;html=1;boundedLbl=1;backgroundOutline=1;size=15;" vertex="1" parent="1">
          <mxGeometry x="600" y="241" width="40" height="49" as="geometry" />
        </mxCell>
        <mxCell id="3ul-_6yD8wy-h_L_aHeE-30" value="" style="sketch=0;outlineConnect=0;fontColor=#232F3E;gradientColor=none;fillColor=#B0084D;strokeColor=none;dashed=0;verticalLabelPosition=bottom;verticalAlign=top;align=center;html=1;fontSize=12;fontStyle=0;aspect=fixed;pointerEvents=1;shape=mxgraph.aws4.mq_broker;" vertex="1" parent="1">
          <mxGeometry x="680" y="311" width="78" height="78" as="geometry" />
        </mxCell>
        <mxCell id="3ul-_6yD8wy-h_L_aHeE-31" value="Message Broker" style="text;html=1;align=center;verticalAlign=middle;resizable=0;points=[];autosize=1;strokeColor=none;fillColor=none;" vertex="1" parent="1">
          <mxGeometry x="664" y="285" width="110" height="30" as="geometry" />
        </mxCell>
        <mxCell id="3ul-_6yD8wy-h_L_aHeE-33" value="Microservices" style="text;html=1;align=center;verticalAlign=middle;resizable=0;points=[];autosize=1;strokeColor=none;fillColor=none;" vertex="1" parent="1">
          <mxGeometry x="530" y="150" width="100" height="30" as="geometry" />
        </mxCell>
        <mxCell id="3ul-_6yD8wy-h_L_aHeE-45" value="DB" style="shape=cylinder3;whiteSpace=wrap;html=1;boundedLbl=1;backgroundOutline=1;size=15;" vertex="1" parent="1">
          <mxGeometry x="600" y="320" width="40" height="49" as="geometry" />
        </mxCell>
        <mxCell id="3ul-_6yD8wy-h_L_aHeE-46" value="DB" style="shape=cylinder3;whiteSpace=wrap;html=1;boundedLbl=1;backgroundOutline=1;size=15;" vertex="1" parent="1">
          <mxGeometry x="600" y="400" width="40" height="49" as="geometry" />
        </mxCell>
        <mxCell id="3ul-_6yD8wy-h_L_aHeE-47" value="DB" style="shape=cylinder3;whiteSpace=wrap;html=1;boundedLbl=1;backgroundOutline=1;size=15;" vertex="1" parent="1">
          <mxGeometry x="600" y="480" width="40" height="49" as="geometry" />
        </mxCell>
      </root>
    </mxGraphModel>
  </diagram>
</mxfile>
